<svg width="683px" height="131.6px" xmlns="http://www.w3.org/2000/svg" viewBox="-91.49062499999997 9.200000000000003 682.9812499999999 131.6" style="background: rgba(0, 0, 0, 0)" preserveAspectRatio="xMidYMid"><defs><linearGradient id="editing-shiny-gradient" x1="0.4390653282974263" x2="0.5609346717025737" y1="0.0037269241793390084" y2="0.996273075820661" gradientUnits="objectBoundingBox"><stop offset="0" stop-color="#ffb200"></stop><stop offset="0.5" stop-color="#e10057"></stop><stop offset="1" stop-color="#5a1a80"></stop></linearGradient><linearGradient id="editing-shiny-gradient2" x1="0" x2="0" y1="0" y2="1"><stop offset="0.2" stop-color="#ffffff" stop-opacity="0.8"></stop><stop offset="0.8" stop-color="#ffffff" stop-opacity="0"></stop></linearGradient><filter id="editing-shiny2" x="-100%" y="-100%" width="300%" height="300%"><feMorphology operator="erode" radius="2"></feMorphology></filter><filter id="editing-shiny" x="-100%" y="-100%" width="300%" height="300%"><feFlood flood-color="#fff" result="flood"></feFlood><feConvolveMatrix in="SourceGraphic" result="conv" order="8,8" divisor="1" kernelMatrix="0 0 0 0 0 0 0 0 0 0 0 1 1 0 0 0 0 0 0 1 1 0 0 0 0 0 1 0 0 1 0 0 0 0 1 0 0 1 0 0 0 1 0 0 0 0 1 0 0 1 1 0 0 1 1 0 0 0 0 1 1 0 0 0 "></feConvolveMatrix><feOffset dx="0" dy="4" in="conv" result="offset"></feOffset><feComposite operator="in" in="flood" in2="offset" result="comp"></feComposite><feGaussianBlur in="offset" stdDeviation="3" result="shadow"></feGaussianBlur><feColorMatrix in="shadow" type="matrix" values="0.7 0 0 0 0  0 0.7 0 0 0  0 0 0.7 0 0  0 0 0 0.3 0" result="dark-shadow"></feColorMatrix><feOffset dx="0" dy="4" in="dark-shadow" result="offset-shadow"></feOffset><feOffset dx="0" dy="2" in="conv" result="offset-2"></feOffset><feComposite operator="out" in="offset" in2="offset-2" result="edge-diff"></feComposite><feGaussianBlur in="edge-diff" stdDeviation="1" result="edge-blur"></feGaussianBlur><feColorMatrix in="edge-blur" result="edge-shadow" type="matrix" values="0 0 0 0 0  0 0 0 0 0  0 0 0 0 0  0 0 0 0.5 0"></feColorMatrix><feComposite operator="in" in="edge-shadow" in2="offset" result="edge-shadow-in"></feComposite><feOffset dx="0" dy="1" in="edge-shadow-in" result="edge-shadow-final"></feOffset><feMerge result="out"><feMergeNode in="offset-shadow"></feMergeNode><feMergeNode in="comp"></feMergeNode><feMergeNode in="edge-shadow-final"></feMergeNode><feMergeNode in="SourceGraphic"></feMergeNode></feMerge></filter></defs><g filter="url(#editing-shiny)"><g transform="matrix(1.4,0,0,1.4,-57,169.8)"><path d="M -8.4 -104.8 L -8.4 -58.7 L -16 -58.7 L -16 -104.8 L -8.4 -104.8 Z M 2.7 -94 L 9.6 -94 L 10.4 -90.4 L 10.4 -58.7 L 2.7 -58.7 L 2.7 -94 Z M 39.1 -94.4 L 39.1 -94.4 L 39.1 -94.4 Q 41.2 -94.4 43.1 -93.5 L 43.1 -93.5 L 43.1 -93.5 Q 44.9 -92.7 46.3 -91.1 L 46.3 -91.1 L 46.3 -91.1 Q 47.7 -89.6 48.5 -87.4 L 48.5 -87.4 L 48.5 -87.4 Q 49.3 -85.2 49.3 -82.7 L 49.3 -82.7 L 49.3 -58.7 L 41.8 -58.7 L 41.8 -77.9 L 41.8 -77.9 Q 41.8 -80.1 41.8 -82 L 41.8 -82 L 41.8 -82 Q 41.7 -83.9 41.4 -85.4 L 41.4 -85.4 L 41.4 -85.4 Q 41 -86.9 40.1 -87.7 L 40.1 -87.7 L 40.1 -87.7 Q 39.3 -88.6 37.6 -88.6 L 37.6 -88.6 L 37.6 -88.6 Q 37.1 -88.6 35.7 -88.4 L 35.7 -88.4 L 35.7 -88.4 Q 34.2 -88.2 32.4 -87.3 L 32.4 -87.3 L 32.4 -92.2 L 32.4 -92.2 Q 34.1 -93.2 35.8 -93.8 L 35.8 -93.8 L 35.8 -93.8 Q 37.6 -94.4 39.1 -94.4 Z M 28.2 -89.6 L 28.2 -89.6 L 28.2 -89.6 Q 29 -88.4 29.3 -87.2 L 29.3 -87.2 L 29.3 -87.2 Q 29.7 -85.9 29.8 -84.5 L 29.8 -84.5 L 29.8 -84.5 Q 29.9 -83.1 29.8 -81.7 L 29.8 -81.7 L 29.8 -81.7 Q 29.8 -80.2 29.8 -78.6 L 29.8 -78.6 L 29.8 -58.7 L 22.2 -58.7 L 22.2 -77.9 L 22.2 -77.9 Q 22.2 -80.1 22.2 -82 L 22.2 -82 L 22.2 -82 Q 22.2 -83.9 21.9 -85.4 L 21.9 -85.4 L 21.9 -85.4 Q 21.5 -86.9 20.6 -87.7 L 20.6 -87.7 L 20.6 -87.7 Q 19.7 -88.6 18.1 -88.6 L 18.1 -88.6 L 18.1 -88.6 Q 17.3 -88.6 15.8 -88.3 L 15.8 -88.3 L 15.8 -88.3 Q 14.4 -88 12.9 -87.3 L 12.9 -87.3 L 12.9 -92.2 L 12.9 -92.2 Q 14.4 -93.1 16.1 -93.7 L 16.1 -93.7 L 16.1 -93.7 Q 17.9 -94.2 19.6 -94.2 L 19.6 -94.2 L 19.6 -94.2 Q 22.4 -94.2 24.4 -93.1 L 24.4 -93.1 L 24.4 -93.1 Q 26.4 -91.9 28.2 -89.6 Z M 66.2 -69.4 L 66.2 -69.4 L 66.2 -69.4 Q 66.2 -66.6 67.3 -65.2 L 67.3 -65.2 L 67.3 -65.2 Q 68.5 -63.8 70.7 -63.6 L 70.7 -63.6 L 70.7 -58.5 L 70.7 -58.5 Q 70.4 -58.4 69.9 -58.4 L 69.9 -58.4 L 69.9 -58.4 Q 67.7 -58.4 65.8 -59 L 65.8 -59 L 65.8 -59 Q 63.8 -59.6 62.3 -60.8 L 62.3 -60.8 L 62.3 -60.8 Q 60.8 -62.1 60 -64.1 L 60 -64.1 L 60 -64.1 Q 59.1 -66.2 59.1 -69.2 L 59.1 -69.2 L 59.1 -69.2 Q 59.1 -72.1 60.3 -74.2 L 60.3 -74.2 L 60.3 -74.2 Q 61.6 -76.2 63.5 -77.6 L 63.5 -77.6 L 63.5 -77.6 Q 65.4 -78.9 67.8 -79.6 L 67.8 -79.6 L 67.8 -79.6 Q 70.2 -80.2 72.7 -80.2 L 72.7 -80.2 L 75.5 -80.2 L 75.5 -75.8 L 74.1 -75.8 L 74.1 -75.8 Q 72.9 -75.8 71.5 -75.6 L 71.5 -75.6 L 71.5 -75.6 Q 70.1 -75.3 68.9 -74.6 L 68.9 -74.6 L 68.9 -74.6 Q 67.7 -73.9 67 -72.7 L 67 -72.7 L 67 -72.7 Q 66.2 -71.4 66.2 -69.4 Z M 85.6 -69.7 L 85.6 -69.2 L 85.6 -69.2 Q 85.6 -68.7 85.7 -67.7 L 85.7 -67.7 L 85.7 -67.7 Q 85.7 -66.7 85.9 -65.7 L 85.9 -65.7 L 85.9 -65.7 Q 86.1 -64.7 86.5 -63.9 L 86.5 -63.9 L 86.5 -63.9 Q 86.9 -63.1 87.6 -62.9 L 87.6 -62.9 L 85.6 -58.7 L 85.6 -58.7 Q 84.8 -58.7 83.9 -59.1 L 83.9 -59.1 L 83.9 -59.1 Q 83 -59.4 82.1 -60.1 L 82.1 -60.1 L 82.1 -60.1 Q 81.3 -60.8 80.7 -61.7 L 80.7 -61.7 L 80.7 -61.7 Q 80.1 -62.5 79.8 -63.5 L 79.8 -63.5 L 79.8 -63.5 Q 79.2 -61.9 77.3 -60.7 L 77.3 -60.7 L 77.3 -60.7 Q 75.5 -59.5 73.2 -58.9 L 73.2 -58.9 L 73.2 -63.7 L 73.2 -63.7 Q 74.7 -64 76 -64.9 L 76 -64.9 L 76 -64.9 Q 77.2 -65.8 78.1 -67.1 L 78.1 -67.1 L 78.1 -80.2 L 78.1 -80.2 Q 78.1 -83.3 77.7 -85.1 L 77.7 -85.1 L 77.7 -85.1 Q 77.4 -86.9 76.7 -87.8 L 76.7 -87.8 L 76.7 -87.8 Q 75.9 -88.6 74.8 -88.8 L 74.8 -88.8 L 74.8 -88.8 Q 73.7 -89.1 72.2 -89.1 L 72.2 -89.1 L 72.2 -89.1 Q 70.9 -89.1 69.6 -88.7 L 69.6 -88.7 L 69.6 -88.7 Q 68.4 -88.4 67.4 -87.9 L 67.4 -87.9 L 67.4 -87.9 Q 66.4 -87.4 65.6 -86.9 L 65.6 -86.9 L 65.6 -86.9 Q 64.8 -86.3 64.4 -86 L 64.4 -86 L 61.6 -90.3 L 61.6 -90.3 Q 62.2 -91 63.5 -91.7 L 63.5 -91.7 L 63.5 -91.7 Q 64.7 -92.4 66.4 -93 L 66.4 -93 L 66.4 -93 Q 68 -93.6 69.9 -93.9 L 69.9 -93.9 L 69.9 -93.9 Q 71.8 -94.2 73.9 -94.2 L 73.9 -94.2 L 73.9 -94.2 Q 75.7 -94.2 77.5 -93.9 L 77.5 -93.9 L 77.5 -93.9 Q 79.3 -93.5 80.8 -92.6 L 80.8 -92.6 L 80.8 -92.6 Q 82.2 -91.7 83.3 -90.3 L 83.3 -90.3 L 83.3 -90.3 Q 84.4 -88.8 84.9 -86.6 L 84.9 -86.6 L 84.9 -86.6 Q 85.3 -84.4 85.5 -82.2 L 85.5 -82.2 L 85.5 -82.2 Q 85.6 -80 85.6 -77.8 L 85.6 -77.8 L 85.6 -69.7 Z M 110.4 -58.4 L 110.4 -58.4 L 110.4 -58.4 Q 106.9 -58.4 104.2 -60 L 104.2 -60 L 104.2 -60 Q 101.6 -61.5 99.9 -64.1 L 99.9 -64.1 L 99.9 -64.1 Q 98.1 -66.6 97.3 -69.9 L 97.3 -69.9 L 97.3 -69.9 Q 96.5 -73.2 96.5 -76.9 L 96.5 -76.9 L 96.5 -76.9 Q 96.5 -81.7 97.8 -85.1 L 97.8 -85.1 L 97.8 -85.1 Q 99.2 -88.4 101.3 -90.5 L 101.3 -90.5 L 101.3 -90.5 Q 103.4 -92.6 106 -93.4 L 106 -93.4 L 106 -93.4 Q 108.6 -94.3 111.1 -94.3 L 111.1 -94.3 L 111.1 -94.3 Q 113 -94.3 114.7 -93.9 L 114.7 -93.9 L 114.7 -93.9 Q 116.5 -93.4 117.9 -92.6 L 117.9 -92.6 L 117.9 -86 L 117.9 -86 Q 116.9 -87.1 115.6 -87.8 L 115.6 -87.8 L 115.6 -87.8 Q 114.2 -88.5 112.7 -88.5 L 112.7 -88.5 L 112.7 -88.5 Q 110.8 -88.5 109.3 -87.5 L 109.3 -87.5 L 109.3 -87.5 Q 107.7 -86.6 106.7 -84.9 L 106.7 -84.9 L 106.7 -84.9 Q 105.6 -83.3 105.1 -81.1 L 105.1 -81.1 L 105.1 -81.1 Q 104.5 -78.9 104.5 -76.5 L 104.5 -76.5 L 104.5 -76.5 Q 104.5 -74 105.1 -71.8 L 105.1 -71.8 L 105.1 -71.8 Q 105.7 -69.6 106.8 -67.9 L 106.8 -67.9 L 106.8 -67.9 Q 107.9 -66.3 109.4 -65.3 L 109.4 -65.3 L 109.4 -65.3 Q 110.9 -64.4 112.8 -64.4 L 112.8 -64.4 L 112.8 -64.4 Q 114.4 -64.4 115.6 -65 L 115.6 -65 L 115.6 -65 Q 116.9 -65.7 117.9 -66.7 L 117.9 -66.7 L 117.9 -60.2 L 117.9 -60.2 Q 116.4 -59.5 114.5 -59 L 114.5 -59 L 114.5 -59 Q 112.6 -58.4 110.4 -58.4 Z M 121.3 -94 L 128.1 -94 L 128 -58.7 L 128 -58.7 Q 127.7 -54.9 126.5 -52.2 L 126.5 -52.2 L 126.5 -52.2 Q 125.2 -49.6 123.2 -47.8 L 123.2 -47.8 L 123.2 -47.8 Q 121.2 -46.1 118.6 -45.3 L 118.6 -45.3 L 118.6 -45.3 Q 115.9 -44.6 112.9 -44.6 L 112.9 -44.6 L 112.9 -44.6 Q 109.4 -44.6 106 -45.8 L 106 -45.8 L 106 -45.8 Q 102.6 -47 100.4 -49.9 L 100.4 -49.9 L 104.7 -54.2 L 104.7 -54.2 Q 105.4 -53.1 106.3 -52.4 L 106.3 -52.4 L 106.3 -52.4 Q 107.3 -51.7 108.3 -51.4 L 108.3 -51.4 L 108.3 -51.4 Q 109.4 -51 110.4 -50.8 L 110.4 -50.8 L 110.4 -50.8 Q 111.4 -50.7 112.2 -50.7 L 112.2 -50.7 L 112.2 -50.7 Q 116.1 -50.7 118.3 -52.9 L 118.3 -52.9 L 118.3 -52.9 Q 120.5 -55.2 120.5 -60.6 L 120.5 -60.6 L 120.5 -90.4 L 121.3 -94 Z M 156.6 -88.4 L 156.6 -94.3 L 156.6 -94.3 Q 160 -94 162.7 -92.5 L 162.7 -92.5 L 162.7 -92.5 Q 165.4 -91 167.4 -88.6 L 167.4 -88.6 L 167.4 -88.6 Q 169.3 -86.2 170.3 -83.2 L 170.3 -83.2 L 170.3 -83.2 Q 171.4 -80.1 171.4 -76.8 L 171.4 -76.8 L 171.4 -76.8 Q 171.4 -75.3 171.2 -73.8 L 171.2 -73.8 L 149.7 -73.8 L 149.7 -79.3 L 164.2 -79.3 L 164.2 -79.3 Q 164.2 -80.9 163.6 -82.4 L 163.6 -82.4 L 163.6 -82.4 Q 163.1 -83.9 162.1 -85.2 L 162.1 -85.2 L 162.1 -85.2 Q 161.1 -86.5 159.7 -87.4 L 159.7 -87.4 L 159.7 -87.4 Q 158.3 -88.2 156.6 -88.4 L 156.6 -88.4 Z M 156.4 -64.6 L 156.4 -64.6 L 156.4 -64.6 Q 157.1 -64.6 158.1 -64.8 L 158.1 -64.8 L 158.1 -64.8 Q 159.1 -64.9 160.3 -65.3 L 160.3 -65.3 L 160.3 -65.3 Q 161.4 -65.7 162.6 -66.4 L 162.6 -66.4 L 162.6 -66.4 Q 163.7 -67 164.6 -67.9 L 164.6 -67.9 L 167.4 -63.7 L 167.4 -63.7 Q 165.3 -61.1 162.6 -59.8 L 162.6 -59.8 L 162.6 -59.8 Q 159.8 -58.5 155.6 -58.5 L 155.6 -58.5 L 155.6 -58.5 Q 152.1 -58.5 149.1 -59.9 L 149.1 -59.9 L 149.1 -59.9 Q 146.1 -61.3 144 -63.7 L 144 -63.7 L 144 -63.7 Q 141.9 -66.2 140.6 -69.4 L 140.6 -69.4 L 140.6 -69.4 Q 139.4 -72.7 139.4 -76.4 L 139.4 -76.4 L 139.4 -76.4 Q 139.4 -80 140.5 -83.2 L 140.5 -83.2 L 140.5 -83.2 Q 141.7 -86.4 143.7 -88.8 L 143.7 -88.8 L 143.7 -88.8 Q 145.7 -91.2 148.3 -92.7 L 148.3 -92.7 L 148.3 -92.7 Q 151 -94.2 154.1 -94.4 L 154.1 -94.4 L 154.1 -88.4 L 154.1 -88.4 Q 151.7 -87.9 150.2 -86.5 L 150.2 -86.5 L 150.2 -86.5 Q 148.7 -85.1 147.9 -83.2 L 147.9 -83.2 L 147.9 -83.2 Q 147.1 -81.4 146.7 -79.4 L 146.7 -79.4 L 146.7 -79.4 Q 146.4 -77.5 146.4 -76.1 L 146.4 -76.1 L 146.4 -76.1 Q 146.4 -73.7 147 -71.6 L 147 -71.6 L 147 -71.6 Q 147.6 -69.5 148.8 -68 L 148.8 -68 L 148.8 -68 Q 150.1 -66.4 151.9 -65.5 L 151.9 -65.5 L 151.9 -65.5 Q 153.7 -64.6 156.4 -64.6 Z M 180.9 -83.9 L 180.9 -83.9 L 180.9 -83.9 Q 180.9 -86.3 181.8 -88.2 L 181.8 -88.2 L 181.8 -88.2 Q 182.7 -90.1 184.2 -91.5 L 184.2 -91.5 L 184.2 -91.5 Q 185.8 -92.8 187.8 -93.6 L 187.8 -93.6 L 187.8 -93.6 Q 189.7 -94.4 191.9 -94.6 L 191.9 -94.6 L 191.9 -88.3 L 191.9 -88.3 Q 190.2 -88 189.3 -87 L 189.3 -87 L 189.3 -87 Q 188.4 -86 188.4 -84.2 L 188.4 -84.2 L 188.4 -84.2 Q 188.4 -82.7 189.4 -81.8 L 189.4 -81.8 L 189.4 -81.8 Q 190.4 -80.9 191.9 -80.2 L 191.9 -80.2 L 191.9 -73.5 L 191.9 -73.5 Q 190.8 -73.8 189.7 -74.2 L 189.7 -74.2 L 189.7 -74.2 Q 188.6 -74.6 187.6 -75.1 L 187.6 -75.1 L 187.6 -75.1 Q 184.2 -76.9 182.6 -78.8 L 182.6 -78.8 L 182.6 -78.8 Q 180.9 -80.7 180.9 -83.9 Z M 204.2 -91.7 L 201.8 -86.6 L 201.8 -86.6 Q 200.1 -87.4 198.2 -87.9 L 198.2 -87.9 L 198.2 -87.9 Q 196.3 -88.3 194.4 -88.4 L 194.4 -88.4 L 194.4 -94.6 L 194.4 -94.6 Q 197.2 -94.5 199.6 -93.8 L 199.6 -93.8 L 199.6 -93.8 Q 202 -93.2 204.2 -91.7 L 204.2 -91.7 Z M 181.1 -61.6 L 184.2 -66.6 L 184.2 -66.6 Q 185.5 -65.7 187.2 -65 L 187.2 -65 L 187.2 -65 Q 188.9 -64.2 191.6 -64.2 L 191.6 -64.2 L 191.9 -64.2 L 191.9 -58.4 L 191.9 -58.4 Q 190.3 -58.4 189 -58.5 L 189 -58.5 L 189 -58.5 Q 187.7 -58.6 186.4 -59 L 186.4 -59 L 186.4 -59 Q 185.1 -59.3 183.8 -59.9 L 183.8 -59.9 L 183.8 -59.9 Q 182.5 -60.6 181.1 -61.6 L 181.1 -61.6 Z M 194.4 -72.6 L 194.4 -79.2 L 194.4 -79.2 Q 196.3 -78.6 198.2 -77.8 L 198.2 -77.8 L 198.2 -77.8 Q 200.2 -77.1 201.8 -75.9 L 201.8 -75.9 L 201.8 -75.9 Q 203.4 -74.8 204.4 -73.2 L 204.4 -73.2 L 204.4 -73.2 Q 205.4 -71.5 205.4 -69 L 205.4 -69 L 205.4 -69 Q 205.4 -66.6 204.6 -64.7 L 204.6 -64.7 L 204.6 -64.7 Q 203.7 -62.9 202.2 -61.6 L 202.2 -61.6 L 202.2 -61.6 Q 200.7 -60.3 198.7 -59.6 L 198.7 -59.6 L 198.7 -59.6 Q 196.7 -58.8 194.4 -58.6 L 194.4 -58.6 L 194.4 -64.5 L 194.4 -64.5 Q 196.6 -64.9 197.7 -65.8 L 197.7 -65.8 L 197.7 -65.8 Q 198.9 -66.8 198.9 -68.4 L 198.9 -68.4 L 198.9 -68.4 Q 198.9 -70.1 197.6 -71 L 197.6 -71 L 197.6 -71 Q 196.3 -71.9 194.4 -72.6 L 194.4 -72.6 Z M 263.9 -100.6 L 258.7 -95.9 L 258.7 -95.9 Q 257.2 -97.7 255.3 -98.6 L 255.3 -98.6 L 255.3 -98.6 Q 253.4 -99.4 251.3 -99.4 L 251.3 -99.4 L 251.1 -99.4 L 251.1 -105.6 L 251.1 -105.6 L 251.1 -105.6 Q 254.9 -105.6 258.1 -104.3 L 258.1 -104.3 L 258.1 -104.3 Q 261.4 -103.1 263.9 -100.6 L 263.9 -100.6 Z M 231.9 -82 L 231.9 -82 L 231.9 -82 Q 231.9 -87.4 233.2 -91.5 L 233.2 -91.5 L 233.2 -91.5 Q 234.4 -95.7 236.6 -98.6 L 236.6 -98.6 L 236.6 -98.6 Q 238.8 -101.5 241.9 -103.2 L 241.9 -103.2 L 241.9 -103.2 Q 244.9 -104.9 248.5 -105.3 L 248.5 -105.3 L 248.5 -99.1 L 248.5 -99.1 Q 246.6 -98.6 245 -97.4 L 245 -97.4 L 245 -97.4 Q 243.4 -96.2 242.2 -94.1 L 242.2 -94.1 L 242.2 -94.1 Q 241 -92 240.3 -89 L 240.3 -89 L 240.3 -89 Q 239.6 -86.1 239.6 -82 L 239.6 -82 L 239.6 -82 Q 239.6 -77.9 240.3 -74.9 L 240.3 -74.9 L 240.3 -74.9 Q 241 -71.8 242.2 -69.6 L 242.2 -69.6 L 242.2 -69.6 Q 243.4 -67.4 245 -66.1 L 245 -66.1 L 245 -66.1 Q 246.6 -64.7 248.5 -64.2 L 248.5 -64.2 L 248.5 -58.6 L 248.5 -58.6 Q 244.9 -59 241.9 -60.7 L 241.9 -60.7 L 241.9 -60.7 Q 238.8 -62.4 236.6 -65.4 L 236.6 -65.4 L 236.6 -65.4 Q 234.4 -68.3 233.2 -72.5 L 233.2 -72.5 L 233.2 -72.5 Q 231.9 -76.6 231.9 -82 Z M 251.1 -82.5 L 266.3 -82.5 L 266.3 -64.7 L 266.3 -64.7 Q 264.9 -62.9 263.1 -61.7 L 263.1 -61.7 L 263.1 -61.7 Q 261.3 -60.6 259.3 -59.8 L 259.3 -59.8 L 259.3 -59.8 Q 257.4 -59.1 255.3 -58.7 L 255.3 -58.7 L 255.3 -58.7 Q 253.2 -58.4 251.1 -58.4 L 251.1 -58.4 L 251.1 -58.4 L 251.1 -63.9 L 251.1 -63.9 Q 251.8 -63.9 252.9 -64 L 252.9 -64 L 252.9 -64 Q 254 -64.1 255.1 -64.3 L 255.1 -64.3 L 255.1 -64.3 Q 256.3 -64.6 257.3 -64.9 L 257.3 -64.9 L 257.3 -64.9 Q 258.4 -65.3 258.9 -66 L 258.9 -66 L 258.9 -77.4 L 251.1 -77.4 L 251.1 -82.5 Z M 282.9 -69.4 L 282.9 -69.4 L 282.9 -69.4 Q 282.9 -66.6 284 -65.2 L 284 -65.2 L 284 -65.2 Q 285.2 -63.8 287.4 -63.6 L 287.4 -63.6 L 287.4 -58.5 L 287.4 -58.5 Q 287.1 -58.4 286.6 -58.4 L 286.6 -58.4 L 286.6 -58.4 Q 284.4 -58.4 282.5 -59 L 282.5 -59 L 282.5 -59 Q 280.5 -59.6 279 -60.8 L 279 -60.8 L 279 -60.8 Q 277.5 -62.1 276.6 -64.1 L 276.6 -64.1 L 276.6 -64.1 Q 275.8 -66.2 275.8 -69.2 L 275.8 -69.2 L 275.8 -69.2 Q 275.8 -72.1 277 -74.2 L 277 -74.2 L 277 -74.2 Q 278.2 -76.2 280.1 -77.6 L 280.1 -77.6 L 280.1 -77.6 Q 282.1 -78.9 284.5 -79.6 L 284.5 -79.6 L 284.5 -79.6 Q 286.9 -80.2 289.4 -80.2 L 289.4 -80.2 L 292.2 -80.2 L 292.2 -75.8 L 290.8 -75.8 L 290.8 -75.8 Q 289.6 -75.8 288.2 -75.6 L 288.2 -75.6 L 288.2 -75.6 Q 286.8 -75.3 285.6 -74.6 L 285.6 -74.6 L 285.6 -74.6 Q 284.4 -73.9 283.6 -72.7 L 283.6 -72.7 L 283.6 -72.7 Q 282.9 -71.4 282.9 -69.4 Z M 302.3 -69.7 L 302.3 -69.2 L 302.3 -69.2 Q 302.3 -68.7 302.4 -67.7 L 302.4 -67.7 L 302.4 -67.7 Q 302.4 -66.7 302.6 -65.7 L 302.6 -65.7 L 302.6 -65.7 Q 302.8 -64.7 303.2 -63.9 L 303.2 -63.9 L 303.2 -63.9 Q 303.6 -63.1 304.3 -62.9 L 304.3 -62.9 L 302.3 -58.7 L 302.3 -58.7 Q 301.5 -58.7 300.6 -59.1 L 300.6 -59.1 L 300.6 -59.1 Q 299.7 -59.4 298.8 -60.1 L 298.8 -60.1 L 298.8 -60.1 Q 298 -60.8 297.4 -61.7 L 297.4 -61.7 L 297.4 -61.7 Q 296.8 -62.5 296.5 -63.5 L 296.5 -63.5 L 296.5 -63.5 Q 295.9 -61.9 294 -60.7 L 294 -60.7 L 294 -60.7 Q 292.2 -59.5 289.9 -58.9 L 289.9 -58.9 L 289.9 -63.7 L 289.9 -63.7 Q 291.4 -64 292.6 -64.9 L 292.6 -64.9 L 292.6 -64.9 Q 293.9 -65.8 294.7 -67.1 L 294.7 -67.1 L 294.7 -80.2 L 294.7 -80.2 Q 294.7 -83.3 294.4 -85.1 L 294.4 -85.1 L 294.4 -85.1 Q 294.1 -86.9 293.4 -87.8 L 293.4 -87.8 L 293.4 -87.8 Q 292.6 -88.6 291.5 -88.8 L 291.5 -88.8 L 291.5 -88.8 Q 290.4 -89.1 288.9 -89.1 L 288.9 -89.1 L 288.9 -89.1 Q 287.6 -89.1 286.3 -88.7 L 286.3 -88.7 L 286.3 -88.7 Q 285.1 -88.4 284.1 -87.9 L 284.1 -87.9 L 284.1 -87.9 Q 283.1 -87.4 282.3 -86.9 L 282.3 -86.9 L 282.3 -86.9 Q 281.5 -86.3 281.1 -86 L 281.1 -86 L 278.3 -90.3 L 278.3 -90.3 Q 278.9 -91 280.2 -91.7 L 280.2 -91.7 L 280.2 -91.7 Q 281.4 -92.4 283.1 -93 L 283.1 -93 L 283.1 -93 Q 284.7 -93.6 286.6 -93.9 L 286.6 -93.9 L 286.6 -93.9 Q 288.5 -94.2 290.6 -94.2 L 290.6 -94.2 L 290.6 -94.2 Q 292.4 -94.2 294.2 -93.9 L 294.2 -93.9 L 294.2 -93.9 Q 296 -93.5 297.5 -92.6 L 297.5 -92.6 L 297.5 -92.6 Q 298.9 -91.7 300 -90.3 L 300 -90.3 L 300 -90.3 Q 301.1 -88.8 301.6 -86.6 L 301.6 -86.6 L 301.6 -86.6 Q 302 -84.4 302.1 -82.2 L 302.1 -82.2 L 302.1 -82.2 Q 302.3 -80 302.3 -77.8 L 302.3 -77.8 L 302.3 -69.7 Z M 321.7 -107.3 L 321.7 -69.5 L 321.7 -69.5 Q 321.7 -67.4 322.3 -66.2 L 322.3 -66.2 L 322.3 -66.2 Q 322.9 -64.9 323.9 -64.3 L 323.9 -64.3 L 323.9 -64.3 Q 324.9 -63.7 326.1 -63.6 L 326.1 -63.6 L 326.1 -63.6 Q 327.4 -63.4 328.9 -63.4 L 328.9 -63.4 L 328.9 -58.7 L 328.9 -58.7 Q 328.1 -58.6 327.2 -58.6 L 327.2 -58.6 L 327.2 -58.6 Q 326.6 -58.5 325.6 -58.5 L 325.6 -58.5 L 325.6 -58.5 Q 324.7 -58.4 323.7 -58.4 L 323.7 -58.4 L 323.7 -58.4 Q 322.8 -58.4 321.9 -58.5 L 321.9 -58.5 L 321.9 -58.5 Q 320.9 -58.6 320.2 -58.7 L 320.2 -58.7 L 320.2 -58.7 Q 318.1 -59.1 316.9 -60.6 L 316.9 -60.6 L 316.9 -60.6 Q 315.7 -62 315.1 -63.8 L 315.1 -63.8 L 315.1 -63.8 Q 314.4 -65.6 314.3 -67.2 L 314.3 -67.2 L 314.3 -67.2 Q 314.1 -68.9 314.1 -69.9 L 314.1 -69.9 L 314.1 -70.6 L 314.1 -107.3 L 321.7 -107.3 Z M 344.4 -107.3 L 344.4 -69.5 L 344.4 -69.5 Q 344.4 -67.4 345 -66.2 L 345 -66.2 L 345 -66.2 Q 345.6 -64.9 346.6 -64.3 L 346.6 -64.3 L 346.6 -64.3 Q 347.6 -63.7 348.8 -63.6 L 348.8 -63.6 L 348.8 -63.6 Q 350.1 -63.4 351.6 -63.4 L 351.6 -63.4 L 351.6 -58.7 L 351.6 -58.7 Q 350.8 -58.6 349.9 -58.6 L 349.9 -58.6 L 349.9 -58.6 Q 349.2 -58.5 348.3 -58.5 L 348.3 -58.5 L 348.3 -58.5 Q 347.4 -58.4 346.4 -58.4 L 346.4 -58.4 L 346.4 -58.4 Q 345.5 -58.4 344.6 -58.5 L 344.6 -58.5 L 344.6 -58.5 Q 343.6 -58.6 342.9 -58.7 L 342.9 -58.7 L 342.9 -58.7 Q 340.7 -59.1 339.6 -60.6 L 339.6 -60.6 L 339.6 -60.6 Q 338.4 -62 337.7 -63.8 L 337.7 -63.8 L 337.7 -63.8 Q 337.1 -65.6 337 -67.2 L 337 -67.2 L 337 -67.2 Q 336.8 -68.9 336.8 -69.9 L 336.8 -69.9 L 336.8 -70.6 L 336.8 -107.3 L 344.4 -107.3 Z M 376 -88.4 L 376 -94.3 L 376 -94.3 Q 379.4 -94 382.1 -92.5 L 382.1 -92.5 L 382.1 -92.5 Q 384.8 -91 386.7 -88.6 L 386.7 -88.6 L 386.7 -88.6 Q 388.7 -86.2 389.7 -83.2 L 389.7 -83.2 L 389.7 -83.2 Q 390.7 -80.1 390.7 -76.8 L 390.7 -76.8 L 390.7 -76.8 Q 390.7 -75.3 390.6 -73.8 L 390.6 -73.8 L 369.1 -73.8 L 369.1 -79.3 L 383.6 -79.3 L 383.6 -79.3 Q 383.6 -80.9 383 -82.4 L 383 -82.4 L 383 -82.4 Q 382.5 -83.9 381.5 -85.2 L 381.5 -85.2 L 381.5 -85.2 Q 380.4 -86.5 379.1 -87.4 L 379.1 -87.4 L 379.1 -87.4 Q 377.7 -88.2 376 -88.4 L 376 -88.4 Z M 375.7 -64.6 L 375.7 -64.6 L 375.7 -64.6 Q 376.4 -64.6 377.5 -64.8 L 377.5 -64.8 L 377.5 -64.8 Q 378.5 -64.9 379.6 -65.3 L 379.6 -65.3 L 379.6 -65.3 Q 380.8 -65.7 382 -66.4 L 382 -66.4 L 382 -66.4 Q 383.1 -67 384 -67.9 L 384 -67.9 L 386.7 -63.7 L 386.7 -63.7 Q 384.7 -61.1 381.9 -59.8 L 381.9 -59.8 L 381.9 -59.8 Q 379.2 -58.5 374.9 -58.5 L 374.9 -58.5 L 374.9 -58.5 Q 371.5 -58.5 368.5 -59.9 L 368.5 -59.9 L 368.5 -59.9 Q 365.5 -61.3 363.4 -63.7 L 363.4 -63.7 L 363.4 -63.7 Q 361.2 -66.2 360 -69.4 L 360 -69.4 L 360 -69.4 Q 358.7 -72.7 358.7 -76.4 L 358.7 -76.4 L 358.7 -76.4 Q 358.7 -80 359.9 -83.2 L 359.9 -83.2 L 359.9 -83.2 Q 361.1 -86.4 363.1 -88.8 L 363.1 -88.8 L 363.1 -88.8 Q 365.1 -91.2 367.7 -92.7 L 367.7 -92.7 L 367.7 -92.7 Q 370.4 -94.2 373.4 -94.4 L 373.4 -94.4 L 373.4 -88.4 L 373.4 -88.4 Q 371.1 -87.9 369.6 -86.5 L 369.6 -86.5 L 369.6 -86.5 Q 368.1 -85.1 367.3 -83.2 L 367.3 -83.2 L 367.3 -83.2 Q 366.4 -81.4 366.1 -79.4 L 366.1 -79.4 L 366.1 -79.4 Q 365.7 -77.5 365.7 -76.1 L 365.7 -76.1 L 365.7 -76.1 Q 365.7 -73.7 366.3 -71.6 L 366.3 -71.6 L 366.3 -71.6 Q 366.9 -69.5 368.2 -68 L 368.2 -68 L 368.2 -68 Q 369.4 -66.4 371.3 -65.5 L 371.3 -65.5 L 371.3 -65.5 Q 373.1 -64.6 375.7 -64.6 Z M 401.1 -94 L 407.9 -94 L 408.7 -90.4 L 408.7 -71.2 L 408.7 -71.1 L 408.7 -58.7 L 401.1 -58.7 L 401.1 -94 Z M 411.2 -86.1 L 411.2 -92.4 L 411.2 -92.4 Q 412.8 -93.3 415 -93.8 L 415 -93.8 L 415 -93.8 Q 417.2 -94.2 420.9 -94.2 L 420.9 -94.2 L 420.9 -86.4 L 420.9 -86.4 Q 419.2 -86.9 416.7 -86.9 L 416.7 -86.9 L 416.7 -86.9 Q 415.3 -86.9 413.9 -86.7 L 413.9 -86.7 L 413.9 -86.7 Q 412.5 -86.5 411.2 -86.1 L 411.2 -86.1 Z M 455.4 -94 L 463 -94 L 463 -94 Q 459.6 -84.8 456.9 -77.7 L 456.9 -77.7 L 456.9 -77.7 Q 454.2 -70.6 452.2 -65.3 L 452.2 -65.3 L 452.2 -65.3 Q 450.2 -59.9 448.6 -56.2 L 448.6 -56.2 L 448.6 -56.2 Q 447.1 -52.6 445.8 -50.1 L 445.8 -50.1 L 445.8 -50.1 Q 444.6 -47.6 443.4 -46.2 L 443.4 -46.2 L 443.4 -46.2 Q 442.3 -44.8 441.1 -44.1 L 441.1 -44.1 L 441.1 -44.1 Q 439.9 -43.3 438.5 -43.2 L 438.5 -43.2 L 438.5 -43.2 Q 437.1 -43 435.3 -43 L 435.3 -43 L 435.3 -43 Q 434.7 -43 434 -43.2 L 434 -43.2 L 434 -43.2 Q 433.2 -43.3 432.5 -43.5 L 432.5 -43.5 L 432.5 -43.5 Q 431.8 -43.7 431.2 -44 L 431.2 -44 L 431.2 -44 Q 430.7 -44.2 430.5 -44.2 L 430.5 -44.2 L 430.5 -44.2 Q 430.7 -45.4 431 -46.4 L 431 -46.4 L 431 -46.4 Q 431.2 -47.2 431.4 -48 L 431.4 -48 L 431.4 -48 Q 431.6 -48.8 431.7 -49.1 L 431.7 -49.1 L 431.7 -49.1 Q 432.2 -49.1 433.3 -48.8 L 433.3 -48.8 L 433.3 -48.8 Q 434.3 -48.5 434.8 -48.5 L 434.8 -48.5 L 434.8 -48.5 Q 435.8 -48.5 436.6 -48.6 L 436.6 -48.6 L 436.6 -48.6 Q 437.4 -48.7 438 -49.2 L 438 -49.2 L 438 -49.2 Q 438.6 -49.6 439.2 -50.5 L 439.2 -50.5 L 439.2 -50.5 Q 439.7 -51.4 440.4 -53.1 L 440.4 -53.1 L 442.8 -58.7 L 455.4 -94 Z M 444.1 -68.2 L 441.5 -62.1 L 428.4 -94 L 435.9 -94 L 444.9 -70.3 L 444.1 -68.2 Z" fill="url(#editing-shiny-gradient)"></path></g></g><style>    text {
  font-size: 64px;
  font-family: Arial Black;
  dominant-baseline: central;
  text-anchor: middle;
}</style>
</svg>